<?xml version="1.0" encoding="utf-8"?>
<!-- Generator: Adobe Illustrator 25.4.1, SVG Export Plug-In . SVG Version: 6.00 Build 0)  -->
<svg version="1.1" id="Layer_1" xmlns="http://www.w3.org/2000/svg" xmlns:xlink="http://www.w3.org/1999/xlink" x="0px" y="0px"
	 viewBox="0 0 1920 700" style="enable-background:new 0 0 1920 700;" xml:space="preserve">
<style type="text/css">
	.st0{fill:#0F0F0F;}
	.st1{fill:#003DFF;}
</style>
<g>
	<path class="st0" d="M282.01,137.96H180.03v116.32H79.66v84.17h100.37v226.64c0,27.52,8.22,49.51,24.68,65.97
		c16.45,16.46,37.9,24.68,64.34,24.68h113.32v-84.18h-77.7c-15.11,0-22.66-8.09-22.66-24.28V338.46h110.08v-84.17H282.01V137.96z"/>
	<rect x="887.26" y="252.14" class="st0" width="101.98" height="401.46"/>
	<polygon class="st0" points="441.23,253.09 539.68,656.78 636.15,656.78 537.7,253.09 	"/>
	<polygon class="st0" points="838.89,253.09 740.43,656.78 643.97,656.78 742.42,253.09 	"/>
	<path class="st0" d="M1068.48,653.59V252.14h100.36v43.71h14.57c7.01-13.48,18.62-25.22,34.81-35.21
		c16.19-9.97,37.49-14.97,63.94-14.97c28.59,0,51.52,5.53,68.8,16.59c17.26,11.07,30.48,25.49,39.65,43.3h14.58
		c9.16-17.26,22.12-31.56,38.85-42.9c16.72-11.33,40.46-17,71.22-17c24.81,0,47.36,5.26,67.59,15.78
		c20.23,10.52,36.42,26.45,48.56,47.75c12.14,21.33,18.21,48.16,18.21,80.53v263.87h-101.98V397.02c0-22.12-5.67-38.71-17-49.78
		c-11.33-11.05-27.26-16.59-47.76-16.59c-23.2,0-41.15,7.43-53.82,22.26c-12.68,14.85-19.02,36.02-19.02,63.54v237.15h-101.98
		V397.02c0-22.12-5.67-38.71-17-49.78c-11.33-11.05-27.26-16.59-47.76-16.59c-23.2,0-41.15,7.43-53.82,22.26
		c-12.68,14.85-19.02,36.02-19.02,63.54v237.15H1068.48z"/>
	<polygon class="st1" points="1871,559.84 1871,653.59 1730.37,653.59 1730.37,559.84 1800.69,512.97 	"/>
	<rect x="887.26" y="137.96" class="st0" width="101.98" height="84.32"/>
</g>
</svg>
